<svg id="Layer_1" data-name="Layer 1" xmlns="http://www.w3.org/2000/svg" viewBox="0 0 217.67 68.17"><defs><style>.cls-1{fill:#29abe2;}</style></defs><path class="cls-1" d="M28.3,31.91a2.05,2.05,0,1,1,0-4.1h21a2.07,2.07,0,0,1,1.61.81,2,2,0,0,1,.39,1.7,2.21,2.21,0,0,1-2.18,1.59Z" transform="translate(-16.17 -26.69)"/><path class="cls-1" d="M28.3,31.91a2.05,2.05,0,1,1,0-4.1h21a2.07,2.07,0,0,1,1.61.81,2,2,0,0,1,.39,1.7,2.21,2.21,0,0,1-2.18,1.59Z" transform="translate(-16.17 -26.69)"/><path class="cls-1" d="M28.3,52.61a2,2,0,1,1,0-4.09H42.05a2,2,0,0,1,1.6.8A2,2,0,0,1,44,51a2.2,2.2,0,0,1-2.18,1.59Z" transform="translate(-16.17 -26.69)"/><path class="cls-1" d="M18.21,73.31a2,2,0,0,1-2-2V29.86a2,2,0,1,1,4.09,0V69.22H49.08a2.2,2.2,0,0,1,2.18,1.59,2,2,0,0,1-.39,1.7,2.09,2.09,0,0,1-1.61.8Z" transform="translate(-16.17 -26.69)"/><path class="cls-1" d="M74.12,63.74a2,2,0,0,1,0-4.1h21a2.09,2.09,0,0,1,1.6.8,2,2,0,0,1,.39,1.71,2.21,2.21,0,0,1-2.18,1.59Z" transform="translate(-16.17 -26.69)"/><path class="cls-1" d="M102.74,73.31a1.8,1.8,0,0,1-.46,0,2.21,2.21,0,0,1-1.59-2.18V48A16.08,16.08,0,0,0,84.63,31.91l-.81,0A16.27,16.27,0,0,0,68.56,48.41V50l-.07,1V61.42h.07v9.84a2.09,2.09,0,0,1-2,2,1.85,1.85,0,0,1-.46,0,2.2,2.2,0,0,1-1.58-2.18V48.5c0-11,8.69-20.27,19.38-20.67l.78,0A20.19,20.19,0,0,1,104.79,48V71.26a2.08,2.08,0,0,1-2.05,2Z" transform="translate(-16.17 -26.69)"/><path class="cls-1" d="M137.69,31.91a2.05,2.05,0,0,1,0-4.1h17.5a2.07,2.07,0,0,1,1.61.81,2,2,0,0,1,.39,1.7A2.21,2.21,0,0,1,155,31.91Z" transform="translate(-16.17 -26.69)"/><path class="cls-1" d="M136.72,71.26a2,2,0,0,0-2.05-2H121.74a2.19,2.19,0,0,0-2.18,1.59,2,2,0,0,0,.39,1.7,2.09,2.09,0,0,0,1.6.8h13.12a2,2,0,0,0,2.05-2Z" transform="translate(-16.17 -26.69)"/><path class="cls-1" d="M158,54.34a12.41,12.41,0,0,0-10.52-5.83H132.16A8.5,8.5,0,0,1,123.64,41a8.33,8.33,0,0,1,4.75-8.3,2.06,2.06,0,0,0-.77-4,1.77,1.77,0,0,0-.78.17,12.34,12.34,0,0,0-7.32,12,12.61,12.61,0,0,0,12.8,11.72h14.86a8.45,8.45,0,0,1,8.48,7.22,8.3,8.3,0,0,1-4.48,8.48,8.67,8.67,0,0,1-4,.91h-3.27a2,2,0,0,0-2.05,2h0a2,2,0,0,0,2.05,2H147c8.2,0,14.64-7.44,12.31-15.86A11.46,11.46,0,0,0,158,54.34Z" transform="translate(-16.17 -26.69)"/><path class="cls-1" d="M174.92,73.31a2.09,2.09,0,0,1-1.61-.8,2,2,0,0,1-.39-1.71,2.2,2.2,0,0,1,2.18-1.58h20.33a2.19,2.19,0,0,1,2.18,1.59,1.94,1.94,0,0,1-.39,1.7,2.06,2.06,0,0,1-1.6.8Z" transform="translate(-16.17 -26.69)"/><path class="cls-1" d="M185.28,65.92a2.21,2.21,0,0,1-2.06-2.24V37.26a2.11,2.11,0,0,1,2.05-2,2.4,2.4,0,0,1,.46,0,2.21,2.21,0,0,1,1.59,2.18V63.82a2.11,2.11,0,0,1-.61,1.48,1.94,1.94,0,0,1-1.34.62Z" transform="translate(-16.17 -26.69)"/><path class="cls-1" d="M174.92,31.91a2.09,2.09,0,0,1-1.61-.8,2,2,0,0,1-.39-1.71,2.21,2.21,0,0,1,2.18-1.59h20.33a2.2,2.2,0,0,1,2.18,1.59,2,2,0,0,1-.39,1.71,2.06,2.06,0,0,1-1.6.8Z" transform="translate(-16.17 -26.69)"/><path class="cls-1" d="M211.08,73.31a2.09,2.09,0,0,1-1.6-.8,2,2,0,0,1-.39-1.71,2.2,2.2,0,0,1,2.18-1.58H231.6a2.2,2.2,0,0,1,2.18,1.59,2,2,0,0,1-.39,1.7,2.09,2.09,0,0,1-1.6.8Z" transform="translate(-16.17 -26.69)"/><path class="cls-1" d="M221.45,65.92a2.21,2.21,0,0,1-2.06-2.24V37.26a2.1,2.1,0,0,1,2-2,2.31,2.31,0,0,1,.46,0,2.21,2.21,0,0,1,1.59,2.18V63.82a2.06,2.06,0,0,1-.61,1.48,1.9,1.9,0,0,1-1.33.62Z" transform="translate(-16.17 -26.69)"/><path class="cls-1" d="M211.08,30.78a2.09,2.09,0,0,1-1.6-.8,2,2,0,0,1-.39-1.71,2.2,2.2,0,0,1,2.18-1.58H231.6a2.2,2.2,0,0,1,2.18,1.59,2,2,0,0,1-.39,1.7,2.09,2.09,0,0,1-1.6.8Z" transform="translate(-16.17 -26.69)"/><path class="cls-1" d="M122.22,94.45h-.11a.56.56,0,0,1-.36-.56V83.44a.56.56,0,0,1,.27-.52.35.35,0,0,1,.2,0,.44.44,0,0,1,.33.15.54.54,0,0,1,.13.37v2.22h0v8.31a.55.55,0,0,1-.14.37.44.44,0,0,1-.33.15Z" transform="translate(-16.17 -26.69)"/><path class="cls-1" d="M133,94.45h-.11a.57.57,0,0,1-.37-.56V84.64l-4.57,5a.41.41,0,0,1-.33.16.42.42,0,0,1-.31-.13L124.2,86.3a.55.55,0,0,1-.13-.36.49.49,0,0,1,.47-.52.44.44,0,0,1,.32.15l2.73,3,5-5.57a.44.44,0,0,1,.33-.15.34.34,0,0,1,.19,0,.57.57,0,0,1,.28.52V93.93a.55.55,0,0,1-.14.37.44.44,0,0,1-.33.15Z" transform="translate(-16.17 -26.69)"/><path class="cls-1" d="M137.56,92a.49.49,0,0,1-.47-.52.5.5,0,0,1,.47-.52h4.84a.48.48,0,0,1,.37.2.59.59,0,0,1,.09.44.51.51,0,0,1-.5.4Z" transform="translate(-16.17 -26.69)"/><path class="cls-1" d="M144.16,94.45h-.1a.57.57,0,0,1-.37-.56V88a3.91,3.91,0,0,0-3.7-4.09h-.19a4,4,0,0,0-3.52,4.2v.4l0,.26v2.66h0v2.5a.51.51,0,0,1-.47.52h-.11a.57.57,0,0,1-.37-.56V88.13c0-2.8,2-5.16,4.48-5.26H140A4.92,4.92,0,0,1,144.64,88v5.93a.55.55,0,0,1-.14.37.45.45,0,0,1-.34.15Z" transform="translate(-16.17 -26.69)"/><path class="cls-1" d="M154,92.28a.41.41,0,0,1-.32-.15l-4.92-5.42a.59.59,0,0,1-.13-.37.49.49,0,0,1,.47-.51.41.41,0,0,1,.32.15l4.92,5.42a.59.59,0,0,1,.13.37.55.55,0,0,1-.14.37.47.47,0,0,1-.33.14Z" transform="translate(-16.17 -26.69)"/><path class="cls-1" d="M146.75,94.85h-.11a.57.57,0,0,1-.37-.56V83.84a.59.59,0,0,1,.28-.53.46.46,0,0,1,.2,0,.47.47,0,0,1,.33.16.59.59,0,0,1,.13.37V94.33a.55.55,0,0,1-.14.37.44.44,0,0,1-.33.15Z" transform="translate(-16.17 -26.69)"/><path class="cls-1" d="M156.29,94.85a.4.4,0,0,1-.3-.13l0,0a.55.55,0,0,1-.14-.37V83.83a.55.55,0,0,1,.36-.55l.11,0a.52.52,0,0,1,.47.53v10.5a.6.6,0,0,1-.14.39.43.43,0,0,1-.33.17Z" transform="translate(-16.17 -26.69)"/><path class="cls-1" d="M160.89,92a.5.5,0,0,1-.48-.52.5.5,0,0,1,.48-.52h4.83a.48.48,0,0,1,.37.2.52.52,0,0,1-.41.84Z" transform="translate(-16.17 -26.69)"/><path class="cls-1" d="M167.49,94.45h-.11a.56.56,0,0,1-.36-.56V88a3.92,3.92,0,0,0-3.71-4.09h-.19a4,4,0,0,0-3.52,4.2v3.32h0v2.5a.51.51,0,0,1-.47.52H159a.56.56,0,0,1-.36-.56V88.13c0-2.8,2-5.16,4.47-5.26h.18A4.92,4.92,0,0,1,168,88v5.93a.55.55,0,0,1-.14.37.44.44,0,0,1-.33.15Z" transform="translate(-16.17 -26.69)"/><path class="cls-1" d="M174.7,90.34a.46.46,0,0,1-.37-.21.53.53,0,0,1,.41-.84h2.92a.5.5,0,0,1,.47.53.49.49,0,0,1-.47.51h-3Z" transform="translate(-16.17 -26.69)"/><path class="cls-1" d="M176.27,94.42a4.64,4.64,0,0,1-2,.43,5,5,0,0,1-3.91-1.94,6.16,6.16,0,0,1-1.3-4.53,5.62,5.62,0,0,1,3.9-4.93,4.61,4.61,0,0,1,1.31-.19A5,5,0,0,1,178,85a.6.6,0,0,1,.14.36.52.52,0,0,1-.47.52.39.39,0,0,1-.31-.13,4,4,0,0,0-3.07-1.41,4.17,4.17,0,0,0-3.34,1.75,5.17,5.17,0,0,0-.87,4,4.38,4.38,0,0,0,4.21,3.74h0a4.05,4.05,0,0,0,2.59-1l.07-.24v-1a.47.47,0,1,1,.94,0v1.16C177.92,93.09,177.68,93.75,176.27,94.42Z" transform="translate(-16.17 -26.69)"/><path class="cls-1" d="M183.09,84.31a.53.53,0,0,1,0-1h4.83a.46.46,0,0,1,.37.21.49.49,0,0,1,.09.43.51.51,0,0,1-.5.41Z" transform="translate(-16.17 -26.69)"/><path class="cls-1" d="M183.09,84.31a.53.53,0,0,1,0-1h4.83a.46.46,0,0,1,.37.21.49.49,0,0,1,.09.43.51.51,0,0,1-.5.41Z" transform="translate(-16.17 -26.69)"/><path class="cls-1" d="M183.09,89.58a.52.52,0,0,1,0-1h3.17a.45.45,0,0,1,.37.2.56.56,0,0,1,.09.43.51.51,0,0,1-.5.41Z" transform="translate(-16.17 -26.69)"/><path class="cls-1" d="M180.76,94.85a.49.49,0,0,1-.47-.52V83.79a.47.47,0,1,1,.94,0v10h6.65a.52.52,0,0,1,.41.84.45.45,0,0,1-.37.2Z" transform="translate(-16.17 -26.69)"/><path class="cls-1" d="M189.92,94.85h-.11a.57.57,0,0,1-.37-.56V83.84a.58.58,0,0,1,.28-.53.45.45,0,0,1,.19,0,.44.44,0,0,1,.33.16.52.52,0,0,1,.14.36V86h0v8.31a.54.54,0,0,1-.14.36.45.45,0,0,1-.33.16Z" transform="translate(-16.17 -26.69)"/><path class="cls-1" d="M200.66,94.85h-.1a.56.56,0,0,1-.37-.56V85l-4.57,5a.44.44,0,0,1-.33.16.38.38,0,0,1-.31-.14l-3.08-3.4a.54.54,0,0,1-.14-.36.49.49,0,0,1,.47-.52.42.42,0,0,1,.33.15l2.73,3,5-5.57a.42.42,0,0,1,.53-.11.57.57,0,0,1,.27.52v10.5a.54.54,0,0,1-.14.36.45.45,0,0,1-.33.16Z" transform="translate(-16.17 -26.69)"/><path class="cls-1" d="M206,84.31a.53.53,0,0,1,0-1h4.84a.46.46,0,0,1,.37.21.52.52,0,0,1,.09.43.51.51,0,0,1-.5.41Z" transform="translate(-16.17 -26.69)"/><path class="cls-1" d="M206,84.31a.53.53,0,0,1,0-1h4.84a.46.46,0,0,1,.37.21.52.52,0,0,1,.09.43.51.51,0,0,1-.5.41Z" transform="translate(-16.17 -26.69)"/><path class="cls-1" d="M206,89.58a.52.52,0,0,1,0-1h3.18a.47.47,0,0,1,.37.2.56.56,0,0,1,.09.43.53.53,0,0,1-.51.41Z" transform="translate(-16.17 -26.69)"/><path class="cls-1" d="M203.65,94.85a.5.5,0,0,1-.48-.52V83.79a.51.51,0,0,1,.48-.53.5.5,0,0,1,.47.52v10h6.65a.51.51,0,0,1,.5.4.55.55,0,0,1-.09.44.45.45,0,0,1-.37.2Z" transform="translate(-16.17 -26.69)"/><path class="cls-1" d="M220.59,92.28a.44.44,0,0,1-.33-.15l-4.91-5.43a.52.52,0,0,1-.14-.36.49.49,0,0,1,.47-.52A.44.44,0,0,1,216,86l4.91,5.42a.54.54,0,0,1,.14.36.52.52,0,0,1-.15.38.45.45,0,0,1-.32.14Z" transform="translate(-16.17 -26.69)"/><path class="cls-1" d="M213.36,94.85h-.11a.56.56,0,0,1-.36-.56V83.84a.58.58,0,0,1,.27-.53.49.49,0,0,1,.2,0,.45.45,0,0,1,.33.16.55.55,0,0,1,.14.37V94.33a.54.54,0,0,1-.14.36.45.45,0,0,1-.33.16Z" transform="translate(-16.17 -26.69)"/><path class="cls-1" d="M222.91,94.85a.4.4,0,0,1-.31-.14l0,0a.55.55,0,0,1-.13-.36V83.83a.56.56,0,0,1,.37-.56h.1a.52.52,0,0,1,.48.52v10.5a.64.64,0,0,1-.15.4.43.43,0,0,1-.33.17Z" transform="translate(-16.17 -26.69)"/><path class="cls-1" d="M225,84.73a.48.48,0,0,1,0-1h8.36a.48.48,0,0,1,0,1Z" transform="translate(-16.17 -26.69)"/><path class="cls-1" d="M229.18,94.32h-.1a.5.5,0,0,1-.37-.5V86.59a.47.47,0,0,1,.47-.47.48.48,0,0,1,.48.47v7.26a.44.44,0,0,1-.15.33.45.45,0,0,1-.33.14Z" transform="translate(-16.17 -26.69)"/></svg>